<svg xmlns="http://www.w3.org/2000/svg" xmlns:xlink="http://www.w3.org/1999/xlink" width="80" zoomAndPan="magnify" viewBox="0 0 60 30.000001" height="40" preserveAspectRatio="xMidYMid meet" version="1.0"><defs><g/></defs><g fill="#ffffff" fill-opacity="1"><g transform="translate(2.031055, 17.937835)"><g><path d="M 5.921875 -3.875 C 6.640625 -3.5 7.003906 -2.820312 7.015625 -1.84375 C 7.015625 -1.5 6.925781 -1.1875 6.75 -0.90625 C 6.570312 -0.632812 6.335938 -0.414062 6.046875 -0.25 C 5.753906 -0.0820312 5.441406 0 5.109375 0 L 0.3125 0 C 0.3125 0 0.351562 -0.03125 0.4375 -0.09375 C 0.53125 -0.15625 0.617188 -0.253906 0.703125 -0.390625 C 0.785156 -0.535156 0.828125 -0.707031 0.828125 -0.90625 L 0.828125 -6.265625 C 0.828125 -6.492188 0.785156 -6.675781 0.703125 -6.8125 C 0.617188 -6.945312 0.53125 -7.039062 0.4375 -7.09375 C 0.351562 -7.15625 0.3125 -7.1875 0.3125 -7.1875 L 4.984375 -7.1875 C 5.296875 -7.1875 5.578125 -7.113281 5.828125 -6.96875 C 6.085938 -6.820312 6.296875 -6.625 6.453125 -6.375 C 6.609375 -6.125 6.691406 -5.847656 6.703125 -5.546875 C 6.703125 -5.140625 6.632812 -4.800781 6.5 -4.53125 C 6.363281 -4.269531 6.171875 -4.050781 5.921875 -3.875 Z M 4.703125 -6.4375 L 2.390625 -6.4375 C 2.179688 -6.4375 2 -6.359375 1.84375 -6.203125 C 1.695312 -6.054688 1.625 -5.875 1.625 -5.65625 L 1.625 -4.21875 L 4.609375 -4.21875 C 4.867188 -4.21875 5.109375 -4.269531 5.328125 -4.375 C 5.554688 -4.476562 5.722656 -4.648438 5.828125 -4.890625 C 5.929688 -5.171875 5.941406 -5.425781 5.859375 -5.65625 C 5.785156 -5.894531 5.640625 -6.082031 5.421875 -6.21875 C 5.210938 -6.363281 4.972656 -6.4375 4.703125 -6.4375 Z M 4.78125 -0.75 C 5.082031 -0.75 5.351562 -0.820312 5.59375 -0.96875 C 5.84375 -1.113281 6.019531 -1.3125 6.125 -1.5625 C 6.238281 -1.820312 6.257812 -2.109375 6.1875 -2.421875 C 6.101562 -2.753906 5.914062 -3.007812 5.625 -3.1875 C 5.332031 -3.375 5.015625 -3.46875 4.671875 -3.46875 L 1.625 -3.46875 L 1.625 -1.484375 C 1.625 -1.285156 1.691406 -1.113281 1.828125 -0.96875 C 1.972656 -0.820312 2.144531 -0.75 2.34375 -0.75 Z M 4.78125 -0.75 "/></g></g></g><g fill="#ffffff" fill-opacity="1"><g transform="translate(9.442518, 17.937835)"><g><path d="M 5.515625 -0.75 C 5.585938 -0.75 5.671875 -0.796875 5.765625 -0.890625 C 5.867188 -0.984375 5.972656 -1.097656 6.078125 -1.234375 C 6.179688 -1.367188 6.273438 -1.503906 6.359375 -1.640625 C 6.453125 -1.773438 6.523438 -1.890625 6.578125 -1.984375 C 6.640625 -2.078125 6.671875 -2.125 6.671875 -2.125 L 6.234375 0 L 0.3125 0 C 0.3125 0 0.351562 -0.03125 0.4375 -0.09375 C 0.53125 -0.164062 0.617188 -0.269531 0.703125 -0.40625 C 0.785156 -0.539062 0.828125 -0.71875 0.828125 -0.9375 L 0.828125 -6.265625 C 0.828125 -6.453125 0.785156 -6.613281 0.703125 -6.75 C 0.617188 -6.882812 0.53125 -6.988281 0.4375 -7.0625 C 0.351562 -7.144531 0.3125 -7.1875 0.3125 -7.1875 L 5.984375 -7.1875 L 6.421875 -5.25 C 6.421875 -5.25 6.378906 -5.304688 6.296875 -5.421875 C 6.210938 -5.546875 6.109375 -5.6875 5.984375 -5.84375 C 5.859375 -6 5.726562 -6.132812 5.59375 -6.25 C 5.46875 -6.375 5.359375 -6.4375 5.265625 -6.4375 L 2.34375 -6.4375 C 2.144531 -6.4375 1.972656 -6.363281 1.828125 -6.21875 C 1.679688 -6.070312 1.609375 -5.898438 1.609375 -5.703125 L 1.609375 -4.03125 L 4.015625 -4.03125 C 4.140625 -4.03125 4.257812 -4.066406 4.375 -4.140625 C 4.488281 -4.222656 4.582031 -4.304688 4.65625 -4.390625 C 4.738281 -4.472656 4.78125 -4.515625 4.78125 -4.515625 L 4.78125 -2.765625 C 4.78125 -2.765625 4.742188 -2.804688 4.671875 -2.890625 C 4.597656 -2.972656 4.503906 -3.054688 4.390625 -3.140625 C 4.273438 -3.234375 4.148438 -3.28125 4.015625 -3.28125 L 1.609375 -3.28125 L 1.609375 -1.46875 C 1.609375 -1.269531 1.675781 -1.097656 1.8125 -0.953125 C 1.957031 -0.816406 2.128906 -0.75 2.328125 -0.75 Z M 5.515625 -0.75 "/></g></g></g><g fill="#ffffff" fill-opacity="1"><g transform="translate(16.422848, 17.937835)"><g><path d="M 6.203125 -7.1875 L 8.015625 -7.1875 C 8.015625 -7.1875 7.972656 -7.15625 7.890625 -7.09375 C 7.804688 -7.03125 7.722656 -6.929688 7.640625 -6.796875 C 7.554688 -6.660156 7.515625 -6.484375 7.515625 -6.265625 L 7.515625 0 L 5.875 0 L 2.15625 -6.4375 L 1.59375 -6.4375 L 1.59375 -0.921875 C 1.59375 -0.710938 1.632812 -0.539062 1.71875 -0.40625 C 1.8125 -0.269531 1.898438 -0.164062 1.984375 -0.09375 C 2.066406 -0.03125 2.109375 0 2.109375 0 L 0.3125 0 C 0.3125 0 0.351562 -0.03125 0.4375 -0.09375 C 0.519531 -0.15625 0.601562 -0.253906 0.6875 -0.390625 C 0.78125 -0.535156 0.828125 -0.710938 0.828125 -0.921875 L 0.828125 -7.1875 L 2.59375 -7.1875 L 6.3125 -0.75 L 6.71875 -0.75 L 6.71875 -6.265625 C 6.71875 -6.484375 6.675781 -6.660156 6.59375 -6.796875 C 6.507812 -6.929688 6.421875 -7.03125 6.328125 -7.09375 C 6.242188 -7.15625 6.203125 -7.1875 6.203125 -7.1875 Z M 6.203125 -7.1875 "/></g></g></g><g fill="#ffffff" fill-opacity="1"><g transform="translate(24.727381, 17.937835)"><g><path d="M 3.765625 -7.1875 C 4.242188 -7.1875 4.707031 -7.101562 5.15625 -6.9375 C 5.613281 -6.769531 6.019531 -6.53125 6.375 -6.21875 C 6.738281 -5.914062 7.023438 -5.5625 7.234375 -5.15625 C 7.453125 -4.75 7.5625 -4.304688 7.5625 -3.828125 C 7.5625 -3.253906 7.46875 -2.734375 7.28125 -2.265625 C 7.09375 -1.796875 6.832031 -1.390625 6.5 -1.046875 C 6.164062 -0.710938 5.773438 -0.453125 5.328125 -0.265625 C 4.878906 -0.0859375 4.398438 0 3.890625 0 L 0.3125 0 C 0.3125 0 0.351562 -0.03125 0.4375 -0.09375 C 0.53125 -0.15625 0.617188 -0.253906 0.703125 -0.390625 C 0.785156 -0.535156 0.828125 -0.710938 0.828125 -0.921875 L 0.828125 -6.265625 C 0.828125 -6.460938 0.785156 -6.628906 0.703125 -6.765625 C 0.617188 -6.910156 0.53125 -7.015625 0.4375 -7.078125 C 0.351562 -7.148438 0.3125 -7.1875 0.3125 -7.1875 Z M 3.890625 -0.75 C 4.296875 -0.75 4.675781 -0.828125 5.03125 -0.984375 C 5.382812 -1.140625 5.691406 -1.347656 5.953125 -1.609375 C 6.210938 -1.878906 6.414062 -2.179688 6.5625 -2.515625 C 6.707031 -2.859375 6.78125 -3.21875 6.78125 -3.59375 C 6.78125 -3.976562 6.707031 -4.335938 6.5625 -4.671875 C 6.414062 -5.015625 6.210938 -5.316406 5.953125 -5.578125 C 5.691406 -5.847656 5.382812 -6.054688 5.03125 -6.203125 C 4.675781 -6.359375 4.296875 -6.4375 3.890625 -6.4375 L 2.375 -6.4375 C 2.164062 -6.4375 1.984375 -6.359375 1.828125 -6.203125 C 1.679688 -6.054688 1.609375 -5.878906 1.609375 -5.671875 L 1.609375 -1.484375 C 1.609375 -1.285156 1.679688 -1.113281 1.828125 -0.96875 C 1.972656 -0.820312 2.144531 -0.75 2.34375 -0.75 Z M 3.890625 -0.75 "/></g></g></g><g fill="#ffffff" fill-opacity="1"><g transform="translate(32.6213, 17.937835)"><g><path d="M 1.59375 -6.265625 L 1.59375 -0.921875 C 1.59375 -0.710938 1.632812 -0.539062 1.71875 -0.40625 C 1.800781 -0.269531 1.882812 -0.164062 1.96875 -0.09375 C 2.0625 -0.03125 2.109375 0 2.109375 0 L 0.296875 0 C 0.296875 0 0.335938 -0.03125 0.421875 -0.09375 C 0.503906 -0.164062 0.585938 -0.269531 0.671875 -0.40625 C 0.765625 -0.539062 0.8125 -0.710938 0.8125 -0.921875 L 0.8125 -6.265625 C 0.8125 -6.460938 0.765625 -6.628906 0.671875 -6.765625 C 0.585938 -6.910156 0.503906 -7.015625 0.421875 -7.078125 C 0.335938 -7.148438 0.296875 -7.1875 0.296875 -7.1875 L 2.109375 -7.1875 C 2.109375 -7.1875 2.0625 -7.15625 1.96875 -7.09375 C 1.882812 -7.039062 1.800781 -6.945312 1.71875 -6.8125 C 1.632812 -6.675781 1.59375 -6.492188 1.59375 -6.265625 Z M 1.59375 -6.265625 "/></g></g></g><g fill="#ffffff" fill-opacity="1"><g transform="translate(35.013088, 17.937835)"><g><path d="M 7.328125 -7.15625 L 7.65625 -5.25 C 7.65625 -5.25 7.613281 -5.304688 7.53125 -5.421875 C 7.445312 -5.546875 7.34375 -5.6875 7.21875 -5.84375 C 7.101562 -6 6.976562 -6.132812 6.84375 -6.25 C 6.71875 -6.375 6.609375 -6.4375 6.515625 -6.4375 L 4.796875 -6.4375 C 4.640625 -6.351562 4.515625 -6.265625 4.421875 -6.171875 C 4.328125 -6.078125 4.28125 -5.945312 4.28125 -5.78125 L 4.28125 -0.921875 C 4.28125 -0.710938 4.320312 -0.539062 4.40625 -0.40625 C 4.488281 -0.269531 4.570312 -0.164062 4.65625 -0.09375 C 4.75 -0.03125 4.796875 0 4.796875 0 L 2.984375 0 C 2.984375 0 3.023438 -0.03125 3.109375 -0.09375 C 3.203125 -0.15625 3.289062 -0.253906 3.375 -0.390625 C 3.457031 -0.523438 3.5 -0.703125 3.5 -0.921875 L 3.5 -5.78125 C 3.5 -5.957031 3.453125 -6.085938 3.359375 -6.171875 C 3.265625 -6.265625 3.140625 -6.351562 2.984375 -6.4375 L 1.265625 -6.4375 C 1.171875 -6.4375 1.054688 -6.375 0.921875 -6.25 C 0.796875 -6.132812 0.671875 -6 0.546875 -5.84375 C 0.429688 -5.6875 0.332031 -5.546875 0.25 -5.421875 C 0.164062 -5.304688 0.125 -5.25 0.125 -5.25 L 0.453125 -7.15625 L 0.453125 -7.1875 L 7.328125 -7.1875 Z M 7.328125 -7.15625 "/></g></g></g><g fill="#ffffff" fill-opacity="1"><g transform="translate(42.804361, 17.937835)"><g><path d="M 7.328125 -7.15625 L 7.65625 -5.25 C 7.65625 -5.25 7.613281 -5.304688 7.53125 -5.421875 C 7.445312 -5.546875 7.34375 -5.6875 7.21875 -5.84375 C 7.101562 -6 6.976562 -6.132812 6.84375 -6.25 C 6.71875 -6.375 6.609375 -6.4375 6.515625 -6.4375 L 4.796875 -6.4375 C 4.640625 -6.351562 4.515625 -6.265625 4.421875 -6.171875 C 4.328125 -6.078125 4.28125 -5.945312 4.28125 -5.78125 L 4.28125 -0.921875 C 4.28125 -0.710938 4.320312 -0.539062 4.40625 -0.40625 C 4.488281 -0.269531 4.570312 -0.164062 4.65625 -0.09375 C 4.75 -0.03125 4.796875 0 4.796875 0 L 2.984375 0 C 2.984375 0 3.023438 -0.03125 3.109375 -0.09375 C 3.203125 -0.15625 3.289062 -0.253906 3.375 -0.390625 C 3.457031 -0.523438 3.5 -0.703125 3.5 -0.921875 L 3.5 -5.78125 C 3.5 -5.957031 3.453125 -6.085938 3.359375 -6.171875 C 3.265625 -6.265625 3.140625 -6.351562 2.984375 -6.4375 L 1.265625 -6.4375 C 1.171875 -6.4375 1.054688 -6.375 0.921875 -6.25 C 0.796875 -6.132812 0.671875 -6 0.546875 -5.84375 C 0.429688 -5.6875 0.332031 -5.546875 0.25 -5.421875 C 0.164062 -5.304688 0.125 -5.25 0.125 -5.25 L 0.453125 -7.15625 L 0.453125 -7.1875 L 7.328125 -7.1875 Z M 7.328125 -7.15625 "/></g></g></g><g fill="#ffffff" fill-opacity="1"><g transform="translate(49.37409, 17.937835)"><g><path d="M 8.65625 0 L 6.15625 0 C 6.15625 0 6.191406 -0.03125 6.265625 -0.09375 C 6.347656 -0.15625 6.4375 -0.238281 6.53125 -0.34375 C 6.632812 -0.445312 6.71875 -0.550781 6.78125 -0.65625 C 6.84375 -0.769531 6.859375 -0.875 6.828125 -0.96875 L 6.203125 -2.5625 L 2.375 -2.5625 L 1.734375 -0.96875 C 1.703125 -0.875 1.71875 -0.769531 1.78125 -0.65625 C 1.84375 -0.550781 1.921875 -0.445312 2.015625 -0.34375 C 2.117188 -0.238281 2.210938 -0.15625 2.296875 -0.09375 C 2.378906 -0.03125 2.421875 0 2.421875 0 L -0.078125 0 C -0.078125 0 -0.0195312 -0.03125 0.09375 -0.09375 C 0.207031 -0.164062 0.34375 -0.28125 0.5 -0.4375 C 0.65625 -0.59375 0.800781 -0.800781 0.9375 -1.0625 L 3.0625 -6.4375 L 3.359375 -7.1875 L 5.203125 -7.1875 L 5.5 -6.4375 L 7.640625 -1.0625 C 7.765625 -0.800781 7.90625 -0.59375 8.0625 -0.4375 C 8.226562 -0.28125 8.367188 -0.164062 8.484375 -0.09375 C 8.597656 -0.03125 8.65625 0 8.65625 0 Z M 2.671875 -3.3125 L 5.890625 -3.3125 L 4.65625 -6.4375 L 3.90625 -6.4375 Z M 2.671875 -3.3125 "/></g></g></g></svg>